<svg xmlns="http://www.w3.org/2000/svg" width="253" height="253" fill="none"><path fill="#A13609" d="M196.778 0H56.222C25.172 0 0 25.172 0 56.222v140.556C0 227.828 25.172 253 56.222 253h140.556c31.05 0 56.222-25.172 56.222-56.222V56.222C253 25.172 227.828 0 196.778 0Z"/><path fill="#2D3F4B" d="M186.236 17.57H66.764c-27.17 0-49.195 22.024-49.195 49.194v119.472c0 27.169 22.025 49.194 49.195 49.194h119.472c27.169 0 49.194-22.025 49.194-49.194V66.764c0-27.17-22.025-49.195-49.194-49.195Z"/><mask id="a" width="217" height="217" x="18" y="18" maskUnits="userSpaceOnUse" style="mask-type:luminance"><path fill="#fff" d="M191.858 18.975H61.141c-23.288 0-42.166 18.879-42.166 42.167v130.716c0 23.288 18.878 42.167 42.166 42.167h130.717c23.288 0 42.167-18.879 42.167-42.167V61.142c0-23.288-18.879-42.167-42.167-42.167Z"/></mask><g fill="#0B1013" mask="url(#a)"><path d="M234.165 63.04c-105.149 0-170.873 50.698-170.873 50.698v1.883h1.883v71.367h61.957v-67.614h214.073v67.614h61.971v-71.367h1.884v-1.883s-65.738-50.699-170.895-50.699ZM57.957 111.939v1.56h-12.53v-10.823H72.3s-3.493 1.771-7.78 4.547a66.478 66.478 0 0 0-6.564 4.709v.007ZM60.34 121.201H45.427v10.823H60.34v-10.823ZM60.34 139.705H45.427v10.837H60.34v-10.837ZM60.34 157.942H45.427v29.046H60.34v-29.046ZM129.367 77.278l-2.446.8V41.015h2.446v36.264ZM159.755 53.383l-5.615-1.532 5.334-10.057 5.095 2.537-4.814 9.06v-.008Zm-16.333-4.364 5.658 1.469 5.734-10.97-5.095-2.51-6.297 12.01Zm25.673-2.432-4.28 8.152 8.967 2.418 3.43-6.536-8.11-4.027-.007-.007ZM145.081 34.71l-6.086-3.043-7.393 14.105 6.802 1.827 6.67-12.889h.007ZM62.68 52.195 31.674 62.47h.12l1.23 2.811h59.384l1.174-2.811h.161L62.68 52.195ZM39.707 84.179l4.259 10.801h37.486l4.273-10.801H39.707ZM62.709 45.828c-.661 0-1.202.534-1.202 1.202V48.66h2.417v-1.616c0-.668-.54-1.216-1.215-1.216Z"/></g><path fill="#F2EDD5" d="M189.75 23.895c10.457 0 20.324 4.11 27.788 11.567 7.463 7.457 11.568 17.33 11.568 27.788v126.5c0 10.457-4.112 20.324-11.568 27.788-7.457 7.463-17.331 11.568-27.788 11.568H63.25c-10.457 0-20.324-4.112-27.788-11.568-7.463-7.457-11.567-17.331-11.567-27.788V63.25c0-10.457 4.11-20.324 11.567-27.788C42.92 28 52.792 23.895 63.25 23.895h126.5Zm0-9.84H63.25c-27.057 0-49.194 22.138-49.194 49.195v126.5c0 27.057 22.137 49.195 49.194 49.195h126.5c27.057 0 49.195-22.138 49.195-49.195V63.25c0-27.057-22.138-49.194-49.195-49.194Z"/><path fill="#F2EDD5" d="M146.114 88.311V72.815c-14.168 1.279-24.997 13.184-24.927 27.401h16.986c0-7.126 3.661-10.886 7.941-11.905Z"/><path fill="#F2EDD5" d="M167.837 120.8c6.417-7.442 10.352-12.165 10.352-21.195 0-15.729-10.703-25.687-24.955-26.818V88.24a11.325 11.325 0 0 1 7.969 11.335c0 4.365-1.307 7.197-4.694 11.238l-34.626 29.334v15.644h55.575v-15.988l-31.266.028L167.83 120.8h.007ZM100.483 75.998H81.93L49.194 139.48v16.312h32.778V140.12H68.605l31.878-64.122Z"/><path fill="#F2EDD5" d="M104.771 123.021H89.099v45.589h15.672v-12.818h8.566V140.12h-8.566v-17.099ZM203.805 163.15h-16.592v-16.593h-16.572v16.593h-16.592v16.564h16.592v16.6h16.572v-16.6h16.592V163.15Z"/></svg>